<svg width="16" height="16" viewBox="0 0 16 16" fill="none" xmlns="http://www.w3.org/2000/svg">
<rect width="16" height="16" rx="8" fill="black"/>
<g clip-path="url(#clip0_7_16)">
<path d="M11.9375 5.13656V3.1875C11.9375 2.95544 11.8453 2.73288 11.6812 2.56878C11.5171 2.40469 11.2946 2.3125 11.0625 2.3125H4.9375C4.70544 2.3125 4.48288 2.40469 4.31878 2.56878C4.15469 2.73288 4.0625 2.95544 4.0625 3.1875V5.15625C4.0628 5.29204 4.09455 5.42591 4.15528 5.54736C4.216 5.66881 4.30405 5.77454 4.4125 5.85625L7.27102 8L4.4125 10.1437C4.30405 10.2255 4.216 10.3312 4.15528 10.4526C4.09455 10.5741 4.0628 10.708 4.0625 10.8438V12.8125C4.0625 13.0446 4.15469 13.2671 4.31878 13.4312C4.48288 13.5953 4.70544 13.6875 4.9375 13.6875H11.0625C11.2946 13.6875 11.5171 13.5953 11.6812 13.4312C11.8453 13.2671 11.9375 13.0446 11.9375 12.8125V10.8634C11.9372 10.7282 11.9057 10.5948 11.8455 10.4737C11.7852 10.3526 11.6979 10.247 11.5902 10.1651L8.7257 8L11.5902 5.83438C11.698 5.75266 11.7853 5.64717 11.8456 5.52613C11.9058 5.40509 11.9373 5.27177 11.9375 5.13656ZM11.0625 12.8125H4.9375V10.8438L8 8.54688L11.0625 10.8629V12.8125ZM11.0625 5.13656L8 7.45312L4.9375 5.15625V3.1875H11.0625V5.13656Z" fill="white"/>
<g clip-path="url(#clip1_7_16)">
<path d="M9.08859 11.912C9.11192 11.9355 9.12502 11.9672 9.12502 12.0002C9.12502 12.0333 9.11192 12.065 9.08859 12.0884C9.07156 12.1052 8.66906 12.5 8 12.5C7.41578 12.5 6.99172 12.15 6.75 11.8773V12.25C6.75 12.2832 6.73683 12.3149 6.71339 12.3384C6.68995 12.3618 6.65815 12.375 6.625 12.375C6.59185 12.375 6.56005 12.3618 6.53661 12.3384C6.51317 12.3149 6.5 12.2832 6.5 12.25V11.5C6.5 11.4668 6.51317 11.4351 6.53661 11.4116C6.56005 11.3882 6.59185 11.375 6.625 11.375H7.375C7.40815 11.375 7.43995 11.3882 7.46339 11.4116C7.48683 11.4351 7.5 11.4668 7.5 11.5C7.5 11.5332 7.48683 11.5649 7.46339 11.5884C7.43995 11.6118 7.40815 11.625 7.375 11.625H6.86625C7.05875 11.8648 7.45312 12.25 8 12.25C8.5625 12.25 8.90844 11.9147 8.91188 11.9113C8.93542 11.8879 8.96726 11.8749 9.0004 11.8751C9.03353 11.8752 9.06526 11.8885 9.08859 11.912ZM9.375 9.625C9.34185 9.625 9.31005 9.63817 9.28661 9.66161C9.26317 9.68505 9.25 9.71685 9.25 9.75V10.1227C9.00828 9.85 8.58422 9.5 8 9.5C7.33094 9.5 6.92844 9.89484 6.91156 9.91156C6.88807 9.93498 6.87483 9.96676 6.87477 9.99994C6.87472 10.0331 6.88784 10.0649 6.91125 10.0884C6.93466 10.1119 6.96645 10.1252 6.99962 10.1252C7.03279 10.1253 7.06463 10.1122 7.08812 10.0888C7.09156 10.0853 7.4375 9.75 8 9.75C8.54688 9.75 8.94125 10.1352 9.13375 10.375H8.625C8.59185 10.375 8.56005 10.3882 8.53661 10.4116C8.51317 10.4351 8.5 10.4668 8.5 10.5C8.5 10.5332 8.51317 10.5649 8.53661 10.5884C8.56005 10.6118 8.59185 10.625 8.625 10.625H9.375C9.40815 10.625 9.43995 10.6118 9.46339 10.5884C9.48683 10.5649 9.5 10.5332 9.5 10.5V9.75C9.5 9.71685 9.48683 9.68505 9.46339 9.66161C9.43995 9.63817 9.40815 9.625 9.375 9.625Z" fill="white"/>
</g>
</g>
<defs>
<clipPath id="clip0_7_16">
<rect width="14" height="14" fill="white" transform="translate(1 1)"/>
</clipPath>
<clipPath id="clip1_7_16">
<rect width="4" height="4" fill="white" transform="translate(6 9)"/>
</clipPath>
</defs>
</svg>
